# xmcd
#
# Track frame offsets: 
#        180
#        13511
#        28812
#        40146
#        54884
#        66451
#        76298
#        95486
#        108820
#        123463
#        136370
#        155582
#
# Disc length: 2257 seconds
#
# Revision: 0
# Processed by: cddbd v1.5.1PL0 Copyright (c) Steve Scherf et al.
# Submitted via: ExactAudioCopy v0.95a5
#
DISCID=9808cf0c
DTITLE=Black Bottom Skiffle Group - Von Bayern nach Amerika
DYEAR=1994
DGENRE=Easy Listening
TTITLE0=I und der Niedermeier (Ring Of Fire)
TTITLE1=Wia i bin
TTITLE2=Heid hod er wieder vui g'arbat
TTITLE3=High Weh (Instrumental)
TTITLE4=So ganz alloa
TTITLE5=Rundummadum
TTITLE6=Fahr los
TTITLE7=Kindereien (Instrumental)
TTITLE8=Alles geht vorbei
TTITLE9=I hob wieder Zeit für di
TTITLE10=Immer der Sonne nach
TTITLE11=Nach Amerika
EXTD=
EXTT0=
EXTT1=
EXTT2=
EXTT3=
EXTT4=
EXTT5=
EXTT6=
EXTT7=
EXTT8=
EXTT9=
EXTT10=
EXTT11=
PLAYORDER=
